<svg width="453" height="193" viewBox="0 0 453 193" fill="none" xmlns="http://www.w3.org/2000/svg">
<path d="M11.215 140.8V49.5046H65.9923V59.6173H30.5977V89.6746H61.7786V99.5064H30.5977V130.687H67.9587V140.8H11.215ZM82.4836 70.5728H97.5122L99.9 76.3314H100.462C100.462 76.1442 101.211 75.4419 102.709 74.2246C104.301 73.0073 106.548 71.8837 109.451 70.8537C112.354 69.7301 115.959 69.1682 120.266 69.1682C127.476 69.1682 132.86 71.1346 136.418 75.0673C140.07 78.9064 141.896 84.946 141.896 93.186V140.8H123.215V96.9782C123.215 90.7046 122.513 86.4442 121.109 84.1969C119.798 81.9496 117.363 80.826 113.805 80.826C111.37 80.826 109.217 81.2005 107.344 81.9496C105.471 82.6987 103.973 83.5414 102.85 84.4778C101.726 85.3205 101.164 85.7887 101.164 85.8823V140.8H82.4836V70.5728ZM158.06 140.8V36.021L176.741 34.8973V140.8H158.06ZM203.133 60.0387C200.324 60.0387 197.842 59.1023 195.689 57.2296C193.535 55.076 192.458 52.4073 192.458 49.2237C192.458 46.1337 193.535 43.5119 195.689 41.3583C197.655 39.4855 200.137 38.5492 203.133 38.5492C206.036 38.5492 208.423 39.4387 210.296 41.2178C212.356 43.3714 213.386 46.0401 213.386 49.2237C213.386 52.501 212.356 55.2164 210.296 57.3701C208.236 59.1492 205.848 60.0387 203.133 60.0387ZM193.722 140.8V70.5728H212.403V140.8H193.722ZM253.687 177.599C243.106 177.599 235.194 175.492 229.95 171.279C224.8 167.065 222.225 161.353 222.225 154.143C222.225 146.278 225.174 140.519 231.074 136.867C230.044 134.62 229.529 132.092 229.529 129.283C229.529 123.665 231.589 119.076 235.709 115.518C232.338 113.365 229.669 110.509 227.703 106.951C225.83 103.392 224.894 99.2255 224.894 94.4501C224.894 86.0228 227.609 79.7023 233.04 75.4887C238.471 71.2751 245.4 69.1682 253.827 69.1682C257.573 69.1682 261.131 69.6832 264.502 70.7132L283.463 70.8537V79.1405L276.721 79.5619C279.343 83.4946 280.654 88.4573 280.654 94.4501C280.654 102.784 278.173 109.151 273.21 113.552C268.341 117.953 261.739 120.153 253.406 120.153C250.222 120.153 246.992 119.779 243.714 119.03C241.935 120.434 241.046 122.166 241.046 124.226C241.046 126.099 242.123 127.551 244.276 128.581C246.43 129.517 250.129 129.985 255.372 129.985C265.672 129.985 273.304 131.858 278.266 135.603C283.229 139.349 285.71 144.873 285.71 152.177C285.71 160.417 282.995 166.69 277.564 170.998C272.227 175.399 264.268 177.599 253.687 177.599ZM252.984 111.586C256.168 111.586 258.556 110.228 260.148 107.512C261.739 104.797 262.535 100.349 262.535 94.1691C262.535 87.9891 261.739 83.7755 260.148 81.5282C258.556 79.281 256.121 78.1573 252.844 78.1573C249.567 78.1573 247.085 79.3278 245.4 81.6687C243.714 83.916 242.872 88.1764 242.872 94.4501C242.872 100.536 243.714 104.937 245.4 107.653C247.179 110.275 249.707 111.586 252.984 111.586ZM253.687 168.048C259.211 168.048 263.331 167.065 266.047 165.099C268.762 163.132 270.12 160.276 270.12 156.531C270.12 152.786 268.622 150.07 265.625 148.385C262.723 146.699 258.322 145.856 252.423 145.856C246.898 145.856 242.357 145.107 238.799 143.609C236.458 146.137 235.287 149.508 235.287 153.722C235.287 158.31 236.785 161.821 239.782 164.256C242.872 166.784 247.507 168.048 253.687 168.048ZM293.988 36.021L312.669 34.8973V75.3482H313.231C313.231 75.161 313.98 74.5523 315.478 73.5223C317.07 72.4923 319.223 71.5092 321.939 70.5728C324.654 69.6364 327.838 69.1682 331.49 69.1682C338.793 69.1682 344.224 71.1346 347.782 75.0673C351.341 78.9064 353.12 84.946 353.12 93.186V140.8H334.58V94.731C334.58 89.3001 333.877 85.6482 332.473 83.7755C331.068 81.8092 328.587 80.826 325.029 80.826C322.688 80.826 320.581 81.2005 318.708 81.9496C316.929 82.6987 315.478 83.5414 314.354 84.4778C313.231 85.3205 312.669 85.7887 312.669 85.8823V140.8H293.988V36.021ZM391.479 142.345C384.831 142.345 379.915 140.706 376.731 137.429C373.548 134.152 371.956 128.627 371.956 120.856V81.3878H365.214V72.9605L372.096 70.9942L381.086 47.2573H390.636V70.5728H406.086V81.3878H390.636V116.08C390.636 120.481 390.824 123.852 391.198 126.193C391.666 128.44 392.369 130.032 393.305 130.968C394.241 131.811 395.552 132.232 397.238 132.232C399.111 132.232 400.796 132.045 402.294 131.671C403.792 131.296 404.541 131.062 404.541 130.968L405.665 138.974C405.665 139.068 405.15 139.396 404.12 139.957C403.09 140.519 401.498 141.034 399.345 141.502C397.285 142.064 394.663 142.345 391.479 142.345Z" fill="white"/>
<path d="M431.304 143.047C428.214 143.047 425.592 142.064 423.438 140.098C421.191 137.851 420.067 135.088 420.067 131.811C420.067 128.534 421.191 125.725 423.438 123.384C425.592 121.417 428.214 120.434 431.304 120.434C434.394 120.434 436.969 121.417 439.029 123.384C441.276 125.725 442.399 128.534 442.399 131.811C442.399 135.088 441.276 137.851 439.029 140.098C436.969 142.064 434.394 143.047 431.304 143.047Z" fill="#3F6EE9"/>
<path d="M3.8437 192.318C3.43781 192.318 3.0883 192.284 2.79516 192.217C2.50201 192.149 2.27652 192.081 2.11867 192.014C1.96083 191.946 1.85936 191.901 1.81426 191.878L2.08485 190.322C2.1525 190.368 2.32162 190.424 2.59221 190.492C2.8628 190.582 3.15595 190.627 3.47164 190.627C4.50891 190.627 5.37706 190.063 6.07609 188.936C6.77512 187.831 7.55308 186.094 8.40995 183.727L1.78043 166.612H4.6893L9.69527 180.75L14.2277 166.612H16.0204L10.1688 183.794C9.19918 186.568 8.24083 188.676 7.29376 190.12C6.36923 191.585 5.21921 192.318 3.8437 192.318ZM27.1221 176.083C27.0995 176.083 26.9191 176.173 26.5809 176.353C26.2426 176.511 25.6789 176.669 24.8897 176.827C24.1005 176.984 23.2774 177.063 22.4205 177.063C19.5117 177.063 18.0572 175.53 18.0572 172.463V166.612H20.5264V172.396C20.5264 173.523 20.7406 174.357 21.169 174.899C21.62 175.44 22.3191 175.71 23.2661 175.71C23.9652 175.71 24.5965 175.643 25.1603 175.507C25.724 175.372 26.1637 175.237 26.4794 175.102C26.8177 174.966 27.0319 174.876 27.1221 174.831V166.612H29.5912V183.524H27.1221V176.083ZM40.6142 183.862C38.3592 183.862 36.5891 183.163 35.3038 181.765C34.0185 180.344 33.3758 178.225 33.3758 175.406C33.3758 172.565 33.9959 170.332 35.2362 168.709C36.4764 167.085 38.1676 166.274 40.3098 166.274C42.249 166.274 43.7373 166.95 44.7745 168.303C45.8344 169.633 46.3643 171.528 46.3643 173.985C46.3643 174.414 46.3417 174.763 46.2966 175.034C46.2515 175.305 46.2177 175.474 46.1952 175.541H35.9465C35.9465 180.096 37.5926 182.374 40.8848 182.374C41.7868 182.374 42.5534 182.216 43.1848 181.9C43.8387 181.562 44.3461 181.212 44.7069 180.852C45.0677 180.468 45.2481 180.243 45.2481 180.175L46.229 180.987C46.229 181.077 46.0148 181.37 45.5863 181.866C45.1579 182.34 44.5265 182.791 43.6922 183.219C42.8578 183.648 41.8318 183.862 40.6142 183.862ZM44.0642 174.121L44.0981 173.478C44.0981 169.645 42.8353 167.728 40.3098 167.728C38.9794 167.728 37.9534 168.258 37.2318 169.318C36.5102 170.355 36.093 171.956 35.9803 174.121H44.0642ZM56.076 183.862C53.6632 183.862 51.8593 183.039 50.6642 181.393C49.469 179.747 48.8715 177.469 48.8715 174.56C48.8715 171.291 49.0519 168.596 49.4127 166.476C49.796 164.357 50.574 162.609 51.7465 161.234C52.9417 159.858 54.7005 159.001 57.0231 158.663L61.5893 158.02L61.6908 160.456L57.6996 160.929C55.8731 161.132 54.4299 161.64 53.3701 162.451C52.3328 163.263 51.5887 164.402 51.1377 165.868C50.6867 167.311 50.4387 169.171 50.3936 171.449H50.5627C50.7205 170.704 51.025 169.938 51.4759 169.149C51.9269 168.359 52.5696 167.683 53.4039 167.119C54.2382 166.555 55.2642 166.274 56.4819 166.274C58.6692 166.274 60.3491 167.04 61.5217 168.574C62.6943 170.084 63.2805 172.227 63.2805 175C63.2805 177.774 62.6492 179.95 61.3864 181.528C60.1236 183.084 58.3535 183.862 56.076 183.862ZM56.076 182.374C57.6545 182.374 58.8158 181.765 59.5599 180.547C60.304 179.307 60.6761 177.458 60.6761 175C60.6761 172.542 60.304 170.716 59.5599 169.521C58.8158 168.326 57.6545 167.728 56.076 167.728C54.5652 167.728 53.4152 168.371 52.626 169.656C51.8593 170.919 51.4759 172.565 51.4759 174.594C51.4759 177.233 51.848 179.194 52.5921 180.48C53.3363 181.742 54.4976 182.374 56.076 182.374ZM67.0649 183.524V166.612H69.5002V174.053H77.043V166.612H79.5121V183.524H77.043V175.575H69.5002V183.524H67.0649ZM84.5385 166.612H86.9738V173.005H89.6121C91.6641 173.005 93.2876 173.41 94.4827 174.222C95.6779 175.011 96.2754 176.297 96.2754 178.078C96.2754 181.709 94.0768 183.524 89.6797 183.524H84.5385V166.612ZM99.1843 183.524V166.612H101.653V183.524H99.1843ZM89.6121 182.171C90.9425 182.171 91.9572 181.855 92.6562 181.224C93.3553 180.592 93.7048 179.544 93.7048 178.078C93.7048 176.703 93.3102 175.733 92.5209 175.169C91.7543 174.606 90.7621 174.324 89.5444 174.324H86.9738V182.171H89.6121ZM106.702 183.524V166.612H109.138V180.108L117.391 166.612H119.589V183.524H117.12V169.656L108.597 183.524H106.702ZM113.197 164.041C111.889 164.041 110.874 163.793 110.153 163.297C109.454 162.801 108.991 162.294 108.766 161.775C108.54 161.234 108.428 160.873 108.428 160.693L110.457 160.49V160.659C110.457 160.704 110.468 160.817 110.491 160.997C110.536 161.155 110.604 161.324 110.694 161.504C111.167 162.316 112.002 162.722 113.197 162.722C114.527 162.722 115.384 162.282 115.767 161.403C115.858 161.222 115.914 161.065 115.936 160.929C115.959 160.794 115.97 160.704 115.97 160.659V160.49L118 160.693C118 160.873 117.887 161.234 117.661 161.775C117.436 162.294 116.962 162.801 116.241 163.297C115.542 163.793 114.527 164.041 113.197 164.041ZM145.081 188.597L144.844 183.524H132.566V166.612H135.001V181.934H142.307V166.612H144.743V181.934H146.874L146.637 188.597H145.081ZM156.191 183.862C153.936 183.862 152.166 183.163 150.88 181.765C149.595 180.344 148.952 178.225 148.952 175.406C148.952 172.565 149.573 170.332 150.813 168.709C152.053 167.085 153.744 166.274 155.886 166.274C157.826 166.274 159.314 166.95 160.351 168.303C161.411 169.633 161.941 171.528 161.941 173.985C161.941 174.414 161.918 174.763 161.873 175.034C161.828 175.305 161.794 175.474 161.772 175.541H151.523C151.523 180.096 153.169 182.374 156.461 182.374C157.363 182.374 158.13 182.216 158.761 181.9C159.415 181.562 159.923 181.212 160.284 180.852C160.644 180.468 160.825 180.243 160.825 180.175L161.806 180.987C161.806 181.077 161.591 181.37 161.163 181.866C160.735 182.34 160.103 182.791 159.269 183.219C158.434 183.648 157.408 183.862 156.191 183.862ZM159.641 174.121L159.675 173.478C159.675 169.645 158.412 167.728 155.886 167.728C154.556 167.728 153.53 168.258 152.808 169.318C152.087 170.355 151.67 171.956 151.557 174.121H159.641ZM165.564 183.524V166.612H168V174.053H175.542V166.612H178.012V183.524H175.542V175.575H168V183.524H165.564ZM186.217 183.524V168.201H181.076V166.612H193.794L193.76 168.201H188.653V183.524H186.217ZM196.911 166.612H198.941L199.245 168.641C199.561 168.145 200.102 167.626 200.868 167.085C201.635 166.544 202.695 166.274 204.048 166.274C206.032 166.274 207.611 167.006 208.783 168.472C209.978 169.938 210.576 171.979 210.576 174.594C210.576 177.435 209.978 179.69 208.783 181.359C207.588 183.028 205.897 183.862 203.71 183.862C202.785 183.862 201.996 183.749 201.342 183.524C200.711 183.276 200.226 183.016 199.888 182.746C199.549 182.453 199.38 182.284 199.38 182.238H199.346V191.98L196.911 192.047V166.612ZM202.898 182.238C204.657 182.238 205.942 181.618 206.754 180.378C207.566 179.115 207.972 177.21 207.972 174.662C207.972 172.294 207.566 170.58 206.754 169.521C205.942 168.461 204.77 167.931 203.236 167.931C202.424 167.931 201.725 168.1 201.139 168.438C200.553 168.777 200.102 169.149 199.786 169.554C199.493 169.938 199.346 170.163 199.346 170.231V180.75C199.594 181.066 200 181.393 200.564 181.731C201.15 182.069 201.928 182.238 202.898 182.238Z" fill="white"/>
</svg>
