<svg width="70" height="23" viewBox="0 0 70 23" fill="none" xmlns="http://www.w3.org/2000/svg">
<path d="M0.717859 17V2.49859H9.4187V4.1049H3.79662V8.87921H8.74941V10.4409H3.79662V15.3937H9.73104V17H0.717859ZM12.0382 5.84507H14.4253L14.8046 6.75977H14.8939C14.8939 6.73003 15.0128 6.61848 15.2508 6.42513C15.5037 6.23177 15.8606 6.0533 16.3217 5.88969C16.7828 5.71121 17.3554 5.62197 18.0395 5.62197C19.1848 5.62197 20.04 5.93431 20.6052 6.55899C21.1852 7.16879 21.4753 8.12811 21.4753 9.43696V17H18.5081V10.0393C18.5081 9.04282 18.3965 8.36608 18.1734 8.00913C17.9652 7.65217 17.5785 7.47369 17.0133 7.47369C16.6266 7.47369 16.2845 7.53318 15.987 7.65217C15.6896 7.77115 15.4516 7.90501 15.2731 8.05375C15.0946 8.18761 15.0054 8.26197 15.0054 8.27684V17H12.0382V5.84507ZM24.0428 17V0.356845L27.01 0.178367V17H24.0428ZM31.2022 4.17183C30.756 4.17183 30.3619 4.0231 30.0198 3.72563C29.6777 3.38355 29.5066 2.95966 29.5066 2.45397C29.5066 1.96315 29.6777 1.5467 30.0198 1.20462C30.3321 0.907155 30.7262 0.758422 31.2022 0.758422C31.6633 0.758422 32.0425 0.899718 32.34 1.18231C32.6672 1.52439 32.8308 1.94828 32.8308 2.45397C32.8308 2.97454 32.6672 3.40586 32.34 3.74794C32.0128 4.03053 31.6335 4.17183 31.2022 4.17183ZM29.7074 17V5.84507H32.6746V17H29.7074ZM39.2322 22.8452C37.5515 22.8452 36.2947 22.5105 35.4618 21.8412C34.6438 21.1719 34.2348 20.2647 34.2348 19.1194C34.2348 17.8701 34.7033 16.9554 35.6403 16.3753C35.4767 16.0184 35.3949 15.6168 35.3949 15.1706C35.3949 14.2782 35.7221 13.5494 36.3765 12.9842C35.8411 12.6421 35.4172 12.1885 35.1048 11.6233C34.8074 11.0581 34.6586 10.3963 34.6586 9.63775C34.6586 8.29915 35.09 7.29521 35.9526 6.62592C36.8153 5.95662 37.9159 5.62197 39.2545 5.62197C39.8494 5.62197 40.4146 5.70377 40.95 5.86738L43.9619 5.88969V7.20597L42.891 7.2729C43.3074 7.89758 43.5157 8.68586 43.5157 9.63775C43.5157 10.9615 43.1215 11.9728 42.3332 12.6719C41.5598 13.3709 40.5113 13.7205 39.1875 13.7205C38.6819 13.7205 38.1687 13.661 37.6482 13.542C37.3656 13.7651 37.2243 14.0402 37.2243 14.3674C37.2243 14.6649 37.3953 14.8954 37.7374 15.059C38.0795 15.2078 38.667 15.2821 39.4999 15.2821C41.1359 15.2821 42.3481 15.5796 43.1364 16.1745C43.9247 16.7695 44.3188 17.647 44.3188 18.8071C44.3188 20.1159 43.8875 21.1125 43.0248 21.7966C42.1771 22.4957 40.9128 22.8452 39.2322 22.8452ZM39.1206 12.3595C39.6263 12.3595 40.0056 12.1439 40.2584 11.7126C40.5113 11.2812 40.6377 10.5748 40.6377 9.59313C40.6377 8.61149 40.5113 7.9422 40.2584 7.58524C40.0056 7.22828 39.6189 7.0498 39.0983 7.0498C38.5777 7.0498 38.1836 7.23572 37.9159 7.60755C37.6482 7.96451 37.5143 8.64124 37.5143 9.63775C37.5143 10.6045 37.6482 11.3035 37.9159 11.7349C38.1985 12.1513 38.6001 12.3595 39.1206 12.3595ZM39.2322 21.3281C40.1097 21.3281 40.7641 21.1719 41.1954 20.8596C41.6268 20.5473 41.8424 20.0936 41.8424 19.4987C41.8424 18.9038 41.6045 18.4725 41.1285 18.2047C40.6674 17.937 39.9684 17.8032 39.0314 17.8032C38.1539 17.8032 37.4325 17.6842 36.8673 17.4462C36.4955 17.8478 36.3096 18.3832 36.3096 19.0525C36.3096 19.7813 36.5475 20.339 37.0235 20.7257C37.5143 21.1273 38.2505 21.3281 39.2322 21.3281ZM45.6337 0.356845L48.6009 0.178367V6.60361H48.6902C48.6902 6.57386 48.8091 6.47718 49.0471 6.31358C49.3 6.14997 49.642 5.9938 50.0734 5.84507C50.5047 5.69634 51.0104 5.62197 51.5904 5.62197C52.7505 5.62197 53.6132 5.93431 54.1784 6.55899C54.7436 7.16879 55.0262 8.12811 55.0262 9.43696V17H52.0813V9.68237C52.0813 8.81972 51.9697 8.23966 51.7466 7.9422C51.5235 7.62986 51.1294 7.47369 50.5642 7.47369C50.1924 7.47369 49.8577 7.53318 49.5602 7.65217C49.2776 7.77115 49.0471 7.90501 48.8686 8.05375C48.6902 8.18761 48.6009 8.26197 48.6009 8.27684V17H45.6337V0.356845ZM61.1192 17.2454C60.0632 17.2454 59.2823 16.9851 58.7767 16.4646C58.271 15.944 58.0181 15.0665 58.0181 13.832V7.56293H56.9472V6.22434L58.0404 5.912L59.4683 2.14163H60.9853V5.84507H63.4394V7.56293H60.9853V13.0735C60.9853 13.7725 61.0151 14.3079 61.0746 14.6798C61.1489 15.0367 61.2605 15.2896 61.4092 15.4383C61.5579 15.5722 61.7662 15.6391 62.0339 15.6391C62.3314 15.6391 62.5991 15.6094 62.837 15.5499C63.075 15.4904 63.194 15.4532 63.194 15.4383L63.3725 16.71C63.3725 16.7248 63.2907 16.7769 63.1271 16.8661C62.9635 16.9554 62.7106 17.0372 62.3685 17.1115C62.0413 17.2008 61.6249 17.2454 61.1192 17.2454Z" fill="white"/>
<path d="M67.4449 17.357C66.9541 17.357 66.5376 17.2008 66.1956 16.8885C65.8386 16.5315 65.6601 16.0927 65.6601 15.5722C65.6601 15.0516 65.8386 14.6054 66.1956 14.2336C66.5376 13.9212 66.9541 13.7651 67.4449 13.7651C67.9357 13.7651 68.3447 13.9212 68.6719 14.2336C69.0289 14.6054 69.2074 15.0516 69.2074 15.5722C69.2074 16.0927 69.0289 16.5315 68.6719 16.8885C68.3447 17.2008 67.9357 17.357 67.4449 17.357Z" fill="#3F6EE9"/>
</svg>
